# xmcd
#
# Track frame offsets: 
#        183
#        17125
#        30853
#        45393
#        77655
#        88668
#        106763
#        135138
#        149328
#        168143
#        203830
#        215060
#        245103
#        255510
#
# Disc length: 3584 seconds
#
# Revision: 0
# Processed by: cddbd v1.5.1PL0 Copyright (c) Steve Scherf et al.
# Submitted via: ExactAudioCopy v0.95a5
#
DISCID=ad0dfe0e
DTITLE=Giles Hedley and Really The Blues - Aviator
DYEAR=1993
DGENRE=Blues
TTITLE0=Neat and Pretty
TTITLE1=Keep Your Hand Out Of My Pockets
TTITLE2=Banty Booster
TTITLE3=Love Me or Leave Me
TTITLE4=Statesboro'blues
TTITLE5=Aviator
TTITLE6=I'd Rather Drink Muddy Water
TTITLE7=Milkcow Blues
TTITLE8=Cross Cut Saw
TTITLE9=Backdoor Man
TTITLE10=Eyesight to the Blind
TTITLE11=The Sky is Crying
TTITLE12=Wee Wee Baby
TTITLE13=My Wife She Drive Me From My Door
EXTD=
EXTT0=
EXTT1=
EXTT2=
EXTT3=
EXTT4=
EXTT5=
EXTT6=
EXTT7=
EXTT8=
EXTT9=
EXTT10=
EXTT11=
EXTT12=
EXTT13=
PLAYORDER=
